<svg width="99" height="38" viewBox="0 0 99 38" fill="none" xmlns="http://www.w3.org/2000/svg">
<path d="M1.2642 15V0.454545H7.00284C8.10133 0.454545 9.03883 0.651041 9.81534 1.04403C10.5966 1.43229 11.1908 1.9839 11.598 2.69886C12.0099 3.40909 12.2159 4.24479 12.2159 5.20597C12.2159 6.17187 12.0076 7.00284 11.5909 7.69886C11.1742 8.39015 10.5705 8.92045 9.77983 9.28977C8.99384 9.65909 8.04214 9.84375 6.92472 9.84375H3.08239V7.37216H6.42756C7.01468 7.37216 7.50237 7.29167 7.89062 7.13068C8.27888 6.9697 8.56771 6.72822 8.7571 6.40625C8.95123 6.08428 9.0483 5.68419 9.0483 5.20597C9.0483 4.72301 8.95123 4.31581 8.7571 3.98438C8.56771 3.65294 8.27652 3.40199 7.88352 3.23153C7.49527 3.05634 7.00521 2.96875 6.41335 2.96875H4.33949V15H1.2642ZM9.11932 8.38068L12.7344 15H9.33949L5.80256 8.38068H9.11932ZM14.3892 15V0.454545H24.1903V2.99006H17.4645V6.45597H23.6861V8.99148H17.4645V12.4645H24.2188V15H14.3892ZM34.5259 4.63778C34.4691 4.06487 34.2253 3.61979 33.7944 3.30256C33.3635 2.98532 32.7788 2.8267 32.0401 2.8267C31.5382 2.8267 31.1145 2.89773 30.7688 3.03977C30.4232 3.17708 30.158 3.36884 29.9734 3.61506C29.7934 3.86127 29.7035 4.14062 29.7035 4.45312C29.694 4.71354 29.7485 4.94081 29.8668 5.13494C29.9899 5.32907 30.158 5.49716 30.3711 5.6392C30.5842 5.77651 30.8304 5.89725 31.1097 6.00142C31.3891 6.10085 31.6874 6.18608 32.0046 6.2571L33.3114 6.5696C33.9459 6.71165 34.5283 6.90104 35.0586 7.13778C35.5889 7.37453 36.0482 7.66572 36.4364 8.01136C36.8247 8.35701 37.1254 8.7642 37.3384 9.23295C37.5562 9.7017 37.6675 10.2391 37.6722 10.8452C37.6675 11.7353 37.4402 12.5071 36.9904 13.1605C36.5453 13.8092 35.9014 14.3134 35.0586 14.6733C34.2205 15.0284 33.2096 15.206 32.0259 15.206C30.8517 15.206 29.829 15.026 28.9577 14.6662C28.0913 14.3063 27.4142 13.7737 26.9265 13.0682C26.4435 12.358 26.1902 11.4796 26.1665 10.4332H29.1424C29.1755 10.9209 29.3152 11.3281 29.5614 11.6548C29.8124 11.9768 30.1462 12.2206 30.5629 12.3864C30.9843 12.5473 31.4601 12.6278 31.9904 12.6278C32.5112 12.6278 32.9634 12.5521 33.3469 12.4006C33.7352 12.2491 34.0359 12.0384 34.2489 11.7685C34.462 11.4986 34.5685 11.1884 34.5685 10.8381C34.5685 10.5114 34.4715 10.2367 34.2773 10.0142C34.0879 9.79167 33.8086 9.60227 33.4393 9.44602C33.0747 9.28977 32.6272 9.14773 32.0969 9.01989L30.5131 8.62216C29.2868 8.32386 28.3185 7.85748 27.6083 7.22301C26.8981 6.58854 26.5453 5.7339 26.5501 4.65909C26.5453 3.77841 26.7797 3.009 27.2532 2.35085C27.7314 1.69271 28.3872 1.17898 29.2205 0.809659C30.0539 0.44034 31.0008 0.255681 32.0614 0.255681C33.141 0.255681 34.0832 0.44034 34.8881 0.809659C35.6978 1.17898 36.3275 1.69271 36.7773 2.35085C37.2272 3.009 37.4592 3.77131 37.4734 4.63778H34.5259ZM39.1868 2.99006V0.454545H51.1328V2.99006H46.6797V15H43.6399V2.99006H39.1868ZM56.1754 0.454545V15H53.1001V0.454545H56.1754ZM71.5394 5.54688H68.4286C68.3718 5.14441 68.2558 4.78693 68.0806 4.47443C67.9054 4.1572 67.6805 3.88731 67.4059 3.66477C67.1313 3.44223 66.814 3.27178 66.4542 3.15341C66.0991 3.03504 65.7132 2.97585 65.2965 2.97585C64.5437 2.97585 63.8879 3.16288 63.3292 3.53693C62.7705 3.90625 62.3372 4.44602 62.0295 5.15625C61.7217 5.86174 61.5678 6.71875 61.5678 7.72727C61.5678 8.7642 61.7217 9.63542 62.0295 10.3409C62.342 11.0464 62.7776 11.5791 63.3363 11.9389C63.895 12.2988 64.5413 12.4787 65.2752 12.4787C65.6871 12.4787 66.0683 12.4242 66.4187 12.3153C66.7738 12.2064 67.0887 12.0478 67.3633 11.8395C67.6379 11.6264 67.8652 11.3684 68.0451 11.0653C68.2298 10.7623 68.3576 10.4167 68.4286 10.0284L71.5394 10.0426C71.4589 10.7102 71.2577 11.3542 70.9357 11.9744C70.6185 12.59 70.19 13.1416 69.6502 13.6293C69.1152 14.1122 68.476 14.4957 67.7326 14.7798C66.994 15.0592 66.1583 15.1989 65.2255 15.1989C63.9281 15.1989 62.7681 14.9053 61.7454 14.3182C60.7274 13.7311 59.9225 12.8812 59.3306 11.7685C58.7435 10.6558 58.4499 9.30871 58.4499 7.72727C58.4499 6.1411 58.7482 4.79167 59.3448 3.67898C59.9414 2.56629 60.7511 1.71875 61.7738 1.13636C62.7965 0.549242 63.9471 0.255681 65.2255 0.255681C66.0683 0.255681 66.8496 0.374053 67.5692 0.610795C68.2937 0.847538 68.9353 1.19318 69.494 1.64773C70.0527 2.09754 70.5072 2.64915 70.8576 3.30256C71.2127 3.95597 71.44 4.70407 71.5394 5.54688Z" fill="#AA71E3"/>
<path d="M79.0359 15.1989C77.9753 15.1989 77.0307 15.0166 76.2021 14.652C75.3782 14.2827 74.7272 13.776 74.2489 13.1321C73.7754 12.4834 73.5316 11.7353 73.5174 10.8878H76.614C76.6329 11.2429 76.7489 11.5554 76.962 11.8253C77.1798 12.0904 77.4686 12.2964 77.8285 12.4432C78.1883 12.59 78.5932 12.6634 79.043 12.6634C79.5117 12.6634 79.926 12.5805 80.2859 12.4148C80.6457 12.2491 80.9274 12.0194 81.131 11.7259C81.3346 11.4323 81.4364 11.0937 81.4364 10.7102C81.4364 10.322 81.3275 9.97869 81.1097 9.6804C80.8967 9.37737 80.5889 9.14062 80.1864 8.97017C79.7887 8.79972 79.3152 8.71449 78.766 8.71449H77.4094V6.45597H78.766C79.23 6.45597 79.6396 6.37547 79.9947 6.21449C80.3545 6.0535 80.6339 5.83097 80.8327 5.54688C81.0316 5.25805 81.131 4.92188 81.131 4.53835C81.131 4.17377 81.0434 3.85417 80.8683 3.57955C80.6978 3.30019 80.4563 3.08239 80.1438 2.92614C79.8361 2.76989 79.4762 2.69176 79.0643 2.69176C78.6476 2.69176 78.2665 2.76752 77.9208 2.91903C77.5752 3.06581 77.2982 3.27651 77.0898 3.55114C76.8815 3.82576 76.7702 4.14773 76.756 4.51705H73.8086C73.8228 3.67898 74.0619 2.94034 74.5259 2.30114C74.9899 1.66193 75.6149 1.1624 76.4009 0.802556C77.1916 0.437973 78.0842 0.255681 79.0785 0.255681C80.0823 0.255681 80.9606 0.437973 81.7134 0.802556C82.4663 1.16714 83.051 1.65956 83.4677 2.27983C83.8891 2.89536 84.0974 3.58665 84.0927 4.35369C84.0974 5.16809 83.8441 5.84754 83.3327 6.39205C82.8261 6.93655 82.1656 7.2822 81.3512 7.42898V7.54261C82.4213 7.67992 83.2357 8.05161 83.7944 8.65767C84.3578 9.259 84.6372 10.0118 84.6325 10.9162C84.6372 11.7448 84.3981 12.4811 83.9151 13.125C83.4369 13.7689 82.7764 14.2756 81.9336 14.6449C81.0908 15.0142 80.1249 15.1989 79.0359 15.1989ZM92.4254 15.1989C91.6773 15.1941 90.9553 15.0687 90.2592 14.8224C89.5679 14.5762 88.9477 14.1761 88.3984 13.6222C87.8492 13.0682 87.4136 12.3343 87.0916 11.4205C86.7744 10.5066 86.6158 9.38447 86.6158 8.05398C86.6205 6.83239 86.7602 5.741 87.0348 4.77983C87.3142 3.81392 87.7119 2.99479 88.228 2.32244C88.7488 1.65009 89.3714 1.13873 90.0959 0.788351C90.8203 0.433238 91.6323 0.255681 92.532 0.255681C93.5026 0.255681 94.3596 0.445075 95.103 0.823864C95.8464 1.19792 96.4429 1.70691 96.8928 2.35085C97.3473 2.99479 97.6219 3.71686 97.7166 4.51705H94.6839C94.5656 4.01042 94.317 3.61269 93.9382 3.32386C93.5594 3.03504 93.0907 2.89062 92.532 2.89062C91.585 2.89062 90.8653 3.30256 90.3729 4.12642C89.8852 4.95028 89.6366 6.07008 89.6271 7.4858H89.7266C89.9444 7.05492 90.2379 6.68797 90.6072 6.38494C90.9813 6.07718 91.4051 5.8428 91.8786 5.68182C92.3568 5.5161 92.861 5.43324 93.3913 5.43324C94.2531 5.43324 95.0201 5.63684 95.6925 6.04403C96.3648 6.4465 96.8951 7.00047 97.2834 7.70597C97.6716 8.41146 97.8658 9.21875 97.8658 10.1278C97.8658 11.1127 97.6361 11.9886 97.1768 12.7557C96.7223 13.5227 96.0855 14.1241 95.2663 14.5597C94.4519 14.9905 93.505 15.2036 92.4254 15.1989ZM92.4112 12.7841C92.8847 12.7841 93.3085 12.6705 93.6825 12.4432C94.0566 12.2159 94.3501 11.9081 94.5632 11.5199C94.7763 11.1316 94.8828 10.696 94.8828 10.2131C94.8828 9.73011 94.7763 9.29687 94.5632 8.91335C94.3549 8.52983 94.0661 8.22443 93.6967 7.99716C93.3274 7.76989 92.906 7.65625 92.4325 7.65625C92.0774 7.65625 91.7483 7.72254 91.4453 7.85511C91.147 7.98769 90.8842 8.17235 90.657 8.40909C90.4344 8.64583 90.2592 8.92045 90.1314 9.23295C90.0036 9.54072 89.9396 9.86979 89.9396 10.2202C89.9396 10.6889 90.0462 11.1174 90.2592 11.5057C90.477 11.8939 90.7706 12.2041 91.1399 12.4361C91.514 12.6681 91.9377 12.7841 92.4112 12.7841Z" fill="#6D7FEB"/>
<path d="M29.3636 22.0909L23.5114 33H21.8068L19.5909 22.0909H21.3381L22.9006 30.7841H23.0142L27.4744 22.0909H29.3636ZM29.7578 33L31.576 22.0909H33.2521L31.4339 33H29.7578ZM31.9169 20.5852L34.1896 17.2898H36.1499L33.3942 20.5852H31.9169ZM38.609 33.2273C37.6952 33.2273 36.9281 32.9976 36.3079 32.5384C35.6876 32.0743 35.2496 31.4209 34.994 30.5781C34.743 29.7306 34.7122 28.7292 34.9016 27.5739C35.0958 26.428 35.458 25.4337 35.9883 24.5909C36.5233 23.7481 37.1791 23.0971 37.9556 22.6378C38.7321 22.1785 39.5797 21.9489 40.4982 21.9489C41.2085 21.9489 41.7506 22.0672 42.1246 22.304C42.5034 22.536 42.7781 22.8011 42.9485 23.0994C43.119 23.393 43.2492 23.6345 43.3391 23.8239H43.4812L44.3761 18.4545H46.0522L43.6374 33H42.0181L42.3022 31.3239H42.1033C41.9471 31.5227 41.7293 31.7737 41.4499 32.0767C41.1706 32.375 40.8013 32.6425 40.342 32.8793C39.8874 33.1113 39.3098 33.2273 38.609 33.2273ZM39.021 31.7216C39.6933 31.7216 40.2946 31.5464 40.8249 31.196C41.36 30.8409 41.805 30.3509 42.1602 29.7259C42.5153 29.0961 42.7615 28.3693 42.8988 27.5455C43.0361 26.7311 43.0314 26.0185 42.8846 25.4077C42.7378 24.7921 42.4561 24.3139 42.0394 23.973C41.6228 23.6274 41.0711 23.4545 40.3846 23.4545C39.6791 23.4545 39.0659 23.6368 38.5451 24.0014C38.0243 24.3613 37.6005 24.8513 37.2738 25.4716C36.9471 26.0871 36.7198 26.7784 36.592 27.5455C36.4641 28.322 36.4618 29.0275 36.5849 29.6619C36.708 30.2917 36.9684 30.7936 37.3661 31.1676C37.7686 31.5369 38.3202 31.7216 39.021 31.7216ZM51.4712 33.2273C50.4248 33.2273 49.5607 32.9953 48.8789 32.5312C48.1971 32.0625 47.7212 31.4091 47.4513 30.571C47.1815 29.7282 47.1388 28.7481 47.3235 27.6307C47.5082 26.5133 47.8751 25.5284 48.4244 24.6761C48.9736 23.8191 49.6578 23.1515 50.4769 22.6733C51.296 22.1903 52.1957 21.9489 53.1758 21.9489C53.744 21.9489 54.2908 22.0436 54.8164 22.233C55.342 22.4223 55.7965 22.7301 56.18 23.1562C56.5636 23.5777 56.8311 24.1364 56.9826 24.8324C57.1341 25.5284 57.1246 26.3854 56.9542 27.4034L56.8406 28.1136H48.4315L48.6587 26.6648H55.3633C55.4722 26.0492 55.4438 25.5 55.2781 25.017C55.1171 24.5341 54.8353 24.1529 54.4329 23.8736C54.0352 23.5942 53.5309 23.4545 52.9201 23.4545C52.2904 23.4545 51.7032 23.625 51.1587 23.9659C50.6142 24.3021 50.1597 24.7282 49.7951 25.2443C49.4305 25.7557 49.2032 26.2765 49.1133 26.8068L48.9144 28.0568C48.7724 28.9612 48.7937 29.6809 48.9783 30.2159C49.1677 30.7509 49.4968 31.1368 49.9656 31.3736C50.4343 31.6056 51.0214 31.7216 51.7269 31.7216C52.1767 31.7216 52.591 31.66 52.9698 31.5369C53.3486 31.4091 53.6871 31.2197 53.9854 30.9688C54.2837 30.7131 54.5347 30.3958 54.7383 30.017L56.2724 30.4716C56.012 31.0208 55.645 31.5038 55.1715 31.9205C54.7028 32.3324 54.1535 32.6544 53.5238 32.8864C52.8988 33.1136 52.2146 33.2273 51.4712 33.2273ZM63.1083 33.2273C62.1045 33.2273 61.2641 32.9882 60.587 32.5099C59.9099 32.0317 59.4317 31.3617 59.1523 30.5C58.8777 29.6383 58.8327 28.6345 59.0174 27.4886C59.1973 26.3712 59.5548 25.3982 60.0898 24.5696C60.6296 23.7363 61.2996 23.0923 62.0998 22.6378C62.9047 22.1785 63.7901 21.9489 64.756 21.9489C65.7598 21.9489 66.5979 22.1903 67.2702 22.6733C67.9473 23.1515 68.4255 23.8239 68.7049 24.6903C68.9843 25.5521 69.0316 26.5606 68.8469 27.7159C68.667 28.8239 68.3048 29.7921 67.7603 30.6207C67.2205 31.4446 66.5505 32.0862 65.7504 32.5455C64.9549 33 64.0742 33.2273 63.1083 33.2273ZM63.1367 31.7216C63.9038 31.7216 64.569 31.5251 65.1325 31.1321C65.7006 30.7391 66.1599 30.2206 66.5103 29.5767C66.8654 28.9328 67.1045 28.2367 67.2276 27.4886C67.3413 26.7784 67.3365 26.1179 67.2134 25.5071C67.0903 24.8916 66.8275 24.3968 66.4251 24.0227C66.0226 23.6439 65.4568 23.4545 64.7276 23.4545C63.9606 23.4545 63.2906 23.6534 62.7177 24.0511C62.1495 24.4489 61.6902 24.9721 61.3398 25.6207C60.9895 26.2694 60.7551 26.9678 60.6367 27.7159C60.5231 28.4261 60.5254 29.0866 60.6438 29.6974C60.7669 30.3035 61.0297 30.7936 61.4322 31.1676C61.8394 31.5369 62.4076 31.7216 63.1367 31.7216ZM79.6868 24.5341L78.0959 24.9602C78.0391 24.7045 77.9396 24.4583 77.7976 24.2216C77.6603 23.9801 77.4472 23.7836 77.1584 23.6321C76.8743 23.4759 76.486 23.3977 75.9936 23.3977C75.326 23.3977 74.746 23.5516 74.2536 23.8594C73.7611 24.1624 73.4794 24.5483 73.4084 25.017C73.3374 25.429 73.4321 25.758 73.6925 26.0043C73.9529 26.2505 74.3885 26.4517 74.9993 26.608L76.5618 27.0057C77.4993 27.2472 78.1669 27.6094 78.5646 28.0923C78.9671 28.5705 79.1044 29.1932 78.9766 29.9602C78.8724 30.5852 78.6001 31.1439 78.1598 31.6364C77.7195 32.1288 77.156 32.517 76.4695 32.8011C75.7829 33.0852 75.0182 33.2273 74.1754 33.2273C73.0533 33.2273 72.1679 32.9858 71.5192 32.5028C70.8705 32.0152 70.5249 31.3097 70.4822 30.3864L72.1584 29.9886C72.201 30.571 72.4093 31.0114 72.7834 31.3097C73.1622 31.6032 73.6925 31.75 74.3743 31.75C75.1555 31.75 75.8066 31.5843 76.3274 31.2528C76.8482 30.9167 77.1442 30.5142 77.2152 30.0455C77.2862 29.6619 77.2105 29.3423 76.9879 29.0866C76.7701 28.831 76.3913 28.6392 75.8516 28.5114L74.1186 28.0852C73.1527 27.8437 72.4756 27.4744 72.0874 26.9773C71.7038 26.4801 71.576 25.8551 71.7038 25.1023C71.808 24.4867 72.0732 23.9422 72.4993 23.4688C72.9302 22.9953 73.4699 22.6236 74.1186 22.3537C74.772 22.0838 75.4822 21.9489 76.2493 21.9489C77.3288 21.9489 78.1361 22.1856 78.6712 22.6591C79.2062 23.1278 79.5447 23.7528 79.6868 24.5341Z" fill="white"/>
</svg>
