<svg width="18" height="18" viewBox="0 0 18 18" fill="none" xmlns="http://www.w3.org/2000/svg">
<path d="M8.62075 1.23589C8.65581 1.16507 8.70996 1.10545 8.7771 1.06377C8.84424 1.02209 8.92169 1 9.00072 1C9.07974 1 9.1572 1.02209 9.22434 1.06377C9.29148 1.10545 9.34563 1.16507 9.38068 1.23589L11.2285 4.97876C11.3502 5.22511 11.5299 5.43824 11.7522 5.59986C11.9744 5.76148 12.2325 5.86677 12.5044 5.90667L16.6368 6.51142C16.7151 6.52276 16.7887 6.55579 16.8492 6.60677C16.9097 6.65775 16.9547 6.72464 16.9792 6.79988C17.0037 6.87512 17.0066 6.9557 16.9877 7.03252C16.9687 7.10934 16.9287 7.17932 16.872 7.23455L13.8835 10.1447C13.6864 10.3368 13.5389 10.5738 13.4538 10.8355C13.3686 11.0972 13.3484 11.3757 13.3947 11.647L14.1003 15.7586C14.1141 15.8368 14.1056 15.9174 14.0759 15.9911C14.0461 16.0648 13.9962 16.1286 13.9319 16.1753C13.8676 16.2221 13.7915 16.2497 13.7122 16.2553C13.6329 16.2608 13.5537 16.2439 13.4835 16.2065L9.78945 14.2643C9.54604 14.1365 9.27524 14.0697 9.00032 14.0697C8.7254 14.0697 8.45459 14.1365 8.21119 14.2643L4.51792 16.2065C4.44779 16.2437 4.36865 16.2604 4.2895 16.2547C4.21035 16.2491 4.13437 16.2214 4.0702 16.1747C4.00603 16.1281 3.95624 16.0643 3.9265 15.9907C3.89676 15.9172 3.88827 15.8367 3.90198 15.7586L4.60671 11.6478C4.65327 11.3764 4.6331 11.0977 4.54795 10.8359C4.4628 10.574 4.31523 10.3368 4.11796 10.1447L1.12943 7.23535C1.07231 7.18018 1.03183 7.11008 1.01261 7.03303C0.993386 6.95598 0.99619 6.87508 1.0207 6.79955C1.04521 6.72401 1.09045 6.65688 1.15125 6.6058C1.21205 6.55471 1.28598 6.52174 1.36461 6.51062L5.49623 5.90667C5.76842 5.86708 6.0269 5.76193 6.24943 5.60029C6.47197 5.43865 6.65189 5.22535 6.77372 4.97876L8.62075 1.23589Z" stroke="white" stroke-linecap="round" stroke-linejoin="round"/>
</svg>
